<svg xmlns="http://www.w3.org/2000/svg" xmlns:xlink="http://www.w3.org/1999/xlink" viewBox="0 0 178.21 66.43"><defs><style>.cls-1{fill:#016df8;}.cls-2{clip-path:url(#clip-path);}.cls-3{clip-path:url(#clip-path-2);}</style><clipPath id="clip-path"><path class="cls-1" d="M49.76,23c-2.57,2.57-3.07,5.94,1.67,11.53,6,7.08,12.16,11.09,11.71,21.26a1.23,1.23,0,0,1,0,.19,35,35,0,0,0,5.72-30.09,16.81,16.81,0,0,1-5.52,8.22c-2.93,2.27-4.39,1.07-3.5-3.63.2-1,.75-5.63-.8-7.72a5.48,5.48,0,0,0-4.34-1.91A6.89,6.89,0,0,0,49.76,23"/></clipPath><clipPath id="clip-path-2"><path class="cls-1" d="M7.54,27.86C9.1,27.8,10.92,26,10.92,26s-1.81,2.13-1.87,3.46,1.89,3.39,1.89,3.39S9.05,31,7.49,31,4.35,32.59,4.12,32.8a5.32,5.32,0,0,0,1.7-3.2C5.82,27.86,4.08,26,4.08,26s1.84,1.88,3.39,1.88h.07m16.8-16.31C27.44,11.44,31,7.8,31,7.8s-3.6,4.21-3.7,6.84,3.74,6.73,3.74,6.73-3.74-3.59-6.83-3.54c-2.89,0-6.27,3.14-6.69,3.53C18,21,20.93,18,20.93,15c0-3.45-3.46-7.16-3.46-7.16s3.66,3.71,6.73,3.72h.14M0,35a35,35,0,0,0,19.5,31.4,3.15,3.15,0,0,1,0-.44c0-5.26,7.85-9.81,9.44-10.48s2.06-.19,1.64.32c-.54.66-1.1,1.89-.12,1.14.77-.59,1.2-.68,1,.66-.29,1.72-.43,5.53,5.52,6,11.22.94,9.32-7.95,4.54-13.74-2.52-3.06-5.79-7.17-7.64-11.11C31.35,33.58,30.42,28,36.73,20.48A25.56,25.56,0,0,1,61.1,11.64,35,35,0,0,0,0,35"/></clipPath></defs><title>资源 2</title><g id="图层_2" data-name="图层 2"><g id="图层_1-2" data-name="图层 1"><path class="cls-1" d="M49.76,23c-2.57,2.57-3.07,5.94,1.67,11.53,6,7.08,12.16,11.09,11.71,21.26a1.23,1.23,0,0,1,0,.19,35,35,0,0,0,5.72-30.09,16.81,16.81,0,0,1-5.52,8.22c-2.93,2.27-4.39,1.07-3.5-3.63.2-1,.75-5.63-.8-7.72a5.48,5.48,0,0,0-4.34-1.91A6.89,6.89,0,0,0,49.76,23"/><g class="cls-2"><rect class="cls-1" x="46.69" y="20.83" width="23.37" height="35.12"/></g><path class="cls-1" d="M7.54,27.86C9.1,27.8,10.92,26,10.92,26s-1.81,2.13-1.87,3.46,1.89,3.39,1.89,3.39S9.05,31,7.49,31,4.35,32.59,4.12,32.8a5.32,5.32,0,0,0,1.7-3.2C5.82,27.86,4.08,26,4.08,26s1.84,1.88,3.39,1.88h.07m16.8-16.31C27.44,11.44,31,7.8,31,7.8s-3.6,4.21-3.7,6.84,3.74,6.73,3.74,6.73-3.74-3.59-6.83-3.54c-2.89,0-6.27,3.14-6.69,3.53C18,21,20.93,18,20.93,15c0-3.45-3.46-7.16-3.46-7.16s3.66,3.71,6.73,3.72h.14M0,35a35,35,0,0,0,19.5,31.4,3.15,3.15,0,0,1,0-.44c0-5.26,7.85-9.81,9.44-10.48s2.06-.19,1.64.32c-.54.66-1.1,1.89-.12,1.14.77-.59,1.2-.68,1,.66-.29,1.72-.43,5.53,5.52,6,11.22.94,9.32-7.95,4.54-13.74-2.52-3.06-5.79-7.17-7.64-11.11C31.35,33.58,30.42,28,36.73,20.48A25.56,25.56,0,0,1,61.1,11.64,35,35,0,0,0,0,35"/><g class="cls-3"><rect class="cls-1" width="61.1" height="66.43"/></g><path class="cls-1" d="M85,61.45l1.48-5.37h.88q0,4.59,3.13,4.66a3.17,3.17,0,0,0,3.26-2.29c.25-.89-.63-1.71-2.64-2.45Q87,54.43,87.68,51.9a6.2,6.2,0,0,1,6.06-4.58,4.48,4.48,0,0,1,2.65.79,1.5,1.5,0,0,0,.58.24c.21,0,.47-.19.79-.56a1.64,1.64,0,0,1,.23-.23h.8l-1.37,4.81h-.8q0-4-2.83-4.1a2.83,2.83,0,0,0-2.94,2c-.27.95.59,1.76,2.58,2.45,2.84,1,4,2.47,3.43,4.42-.92,2.68-3,4.16-6.16,4.42a8,8,0,0,1-3.14-.63,1.84,1.84,0,0,0-.72-.24c-.26,0-.59.24-1,.71l-.1.08Z"/><path class="cls-1" d="M105.22,48.82,104.3,52h3.26l-.25.87h-3.26L102.26,59c-.34,1.16-.11,1.71.7,1.66s1.56-.76,2.06-2.45h1q-.89,3.56-4.29,3.32c-2.05,0-2.84-.84-2.35-2.53l1.77-6.15H99.43l.2-.71a7.29,7.29,0,0,0,4.71-3.32Z"/><path class="cls-1" d="M116.51,54.5l-1.4,4.66c-.24.79-.15,1.19.27,1.19s.75-.48,1.14-1.42h.71l-.12.39a3.14,3.14,0,0,1-3.19,2.21c-1,0-1.61-.34-1.78-1.18a4.86,4.86,0,0,1-3.28,1.18c-2.1,0-2.94-.74-2.5-2.21s2.5-2.76,6.17-3.71a3.23,3.23,0,0,0,.68-.16l.33-1.1c.35-1.16-.09-1.74-1.31-1.74a3.66,3.66,0,0,0-1.45.32l0,.07q1.06.16.72,1.35a1.91,1.91,0,0,1-1.83,1.34c-.94,0-1.29-.55-1.07-1.5.63-1.58,2.27-2.4,5-2.45S117.07,52.66,116.51,54.5Zm-4.27,4.19.69-2.29q-2.78.8-3.42,2.68c-.23,1,0,1.45.82,1.5S111.88,59.9,112.24,58.69Z"/><path class="cls-1" d="M123.1,61.45h-6.32l.24-.79c1.15.05,1.81-.39,2-1.34l1.6-5.21c.39-1,0-1.39-1.19-1.34l.22-.71L124,52l-.65,2.13h.08c1.12-1.58,2.27-2.37,3.43-2.37s1.67.63,1.37,1.74a2.09,2.09,0,0,1-1.92,1.58c-.88-.05-1.2-.56-1-1.5a1.64,1.64,0,0,1,.2-.4l.1-.31c-1.45.89-2.64,2.87-3.58,5.92-.65,1.42-.21,2,1.31,1.89Z"/><path class="cls-1" d="M139.13,61.45h-7.35l.26-.79c1.4.05,2.2-.39,2.4-1.34l3.07-9.63c.41-.95-.11-1.4-1.56-1.34l.25-.79h7.35q4.83.15,3.82,3.71c-.9,2.42-2.92,3.71-6,3.87H139l-1.3,4c-.44,1.06.11,1.55,1.65,1.5ZM140.68,50l-1.34,4.19h.71a3.7,3.7,0,0,0,3.79-2.84q.71-2.68-1.32-2.85A1.86,1.86,0,0,0,140.68,50Z"/><path class="cls-1" d="M157.47,56.71a7.58,7.58,0,0,1-6.92,4.82c-3.16-.16-4.39-1.76-3.7-4.82a7.76,7.76,0,0,1,7-5C156.94,52,158.15,53.61,157.47,56.71Zm-3.41,0c.94-2.78.78-4.21-.48-4.26s-2.4,1.48-3.32,4.26-.72,4.22.47,4.27S153.07,59.51,154.06,56.71Z"/><path class="cls-1" d="M169.44,56.71a7.68,7.68,0,0,1-7,4.82c-3.16-.16-4.37-1.76-3.65-4.82a7.87,7.87,0,0,1,7-5Q170.52,52.06,169.44,56.71Zm-3.4,0c1-2.78.82-4.21-.44-4.26s-2.41,1.48-3.37,4.26-.76,4.22.43,4.27S165,59.51,166,56.71Z"/><path class="cls-1" d="M175.18,60.66l-.28.79h-6.16l.27-.79c1.2.05,1.91-.39,2.13-1.34l3.34-9.47c.44-1,.06-1.4-1.13-1.35l.28-.79,4.58-.07-4.14,11.68C173.63,60.27,174,60.71,175.18,60.66Z"/><path class="cls-1" d="M92.36,36.33l.6-3h12.89l.38-1.86H97.56l.58-2.85a9.5,9.5,0,0,1-1.07,1c-.52.5-.92.87-1.22,1.12A13.4,13.4,0,0,0,94,29a3.94,3.94,0,0,0-.64-.5,43.06,43.06,0,0,0,6.11-6.81H98l2.49-12.14h23.38l-2.53,12.14h-8.94L112,23.58h10.3l-.65,3.09h-10.3l-.38,1.86h9.42l-.62,3h-9.42l-.38,1.86h11.52l-.62,3Zm5.81-7.8h8.68l.38-1.86H99.79a8.63,8.63,0,0,1-.8.87C98.66,28,98.38,28.28,98.17,28.53Zm3.5-6.81,1.59.74a6.35,6.35,0,0,0-.85,1.12h5.46l.38-1.86Zm17.17-7.31.33-1.61H103.88l-.33,1.61ZM102.71,18.5H118L118.3,17H103Z"/><path class="cls-1" d="M141.89,19.49l3.33-2.85q2.22,1.86,4.06,3.72l-3.63,3.09A39.16,39.16,0,0,0,141.89,19.49Zm2.75,5.2c1.37.58,2.63,1.08,3.79,1.49q-2.53,5-5.8,11l-3.8-1.36Q141.79,30.63,144.64,24.69Zm-.57-13.25,3-2.6a27.22,27.22,0,0,1,4.16,3.84l-3.36,3A42.39,42.39,0,0,0,144.07,11.44Zm19.46,3.22,7.68-1.61q-1.62,7.56-2.58,10.9a5.84,5.84,0,0,1-2.29,3.71,13.71,13.71,0,0,1-4.25.75,25.5,25.5,0,0,0-.17-3.84h1.74c.74,0,1.21-.45,1.4-1.36l.4-1.86c.4-1.49.7-2.68.89-3.59l-3.66.86-2.77,13h-4l2.55-12-3.11.62L153,31.63c-.25,1.15.21,1.73,1.37,1.73h7.06c1.49,0,2.42-.49,2.79-1.49a3.3,3.3,0,0,1,.23-.49c.42-1.16.74-2.11,1-2.85a19.51,19.51,0,0,1,1.93.87,11,11,0,0,1,1.8.86,29.91,29.91,0,0,1-2.09,4,5.26,5.26,0,0,1-4.59,2.35h-10q-4.46,0-3.49-4.58l2.28-10.78-1.82.38-.06-3.84,2.72-.5,1.3-6.19h4l-1.1,5.2,3.12-.62,1.52-7.18h4Z"/></g></g></svg>